<svg id="Layer_1" data-name="Layer 1" xmlns="http://www.w3.org/2000/svg" viewBox="0 0 708.92 143.6"><defs><style>.cls-1{fill:#27417c;}.cls-2{fill:#bb2b27;}.cls-3{fill:#fff;}.cls-4{fill:none;}</style></defs><title>top_logo</title><path class="cls-1" d="M302.18,144.51a4.83,4.83,0,0,1,6.49,0,4,4,0,0,1,1.32,3.06,3.66,3.66,0,0,1-1.32,2.93,5.26,5.26,0,0,1-6.49,0,3.65,3.65,0,0,1-1.33-2.93A4,4,0,0,1,302.18,144.51Z" transform="translate(-1.2 -16.95)"/><path class="cls-1" d="M473.06,144.51a4.83,4.83,0,0,1,6.49,0,4,4,0,0,1,1.32,3.06,3.66,3.66,0,0,1-1.32,2.93,5.26,5.26,0,0,1-6.49,0,3.65,3.65,0,0,1-1.33-2.93A4,4,0,0,1,473.06,144.51Z" transform="translate(-1.2 -16.95)"/><rect class="cls-2" y="27.15" width="708.92" height="3.35"/><rect class="cls-2" y="105.59" width="708.92" height="3.35"/><rect class="cls-3" x="36.94" y="34.11" width="103.31" height="103.31" rx="14.24" ry="14.24" transform="translate(-35.9 70.81) rotate(-45)"/><path class="cls-2" d="M88.59,154.58a15.79,15.79,0,0,1-11.25-4.64L24.43,97a15.93,15.93,0,0,1,0-22.5L77.35,21.6a16,16,0,0,1,22.5,0l52.92,52.92a15.93,15.93,0,0,1,0,22.5L99.84,149.93A15.79,15.79,0,0,1,88.59,154.58Zm0-134.27A12.47,12.47,0,0,0,79.71,24L26.79,76.88a12.58,12.58,0,0,0,0,17.76l52.92,52.92a12.6,12.6,0,0,0,17.76,0L150.4,94.65a12.58,12.58,0,0,0,0-17.76L97.48,24A12.47,12.47,0,0,0,88.59,20.3Z" transform="translate(-1.2 -16.95)"/><path class="cls-1" d="M31.07,94.09a11.69,11.69,0,0,1,0-16.65L80.14,29.08a12.11,12.11,0,0,1,16.9,0l49.07,48.35a11.69,11.69,0,0,1,0,16.65L97,142.45a12.11,12.11,0,0,1-16.9,0Z" transform="translate(-1.2 -16.95)"/><rect class="cls-2" x="81.77" y="63.83" width="9.95" height="9.95"/><path class="cls-3" d="M93.76,91.57H82.14V79.95H93.76V91.57Zm-10-1.67h8.28V81.62H83.81V89.9Z" transform="translate(-1.2 -16.95)"/><path class="cls-4" d="M371.13,98.74a11.43,11.43,0,0,0,5-2.34,10.17,10.17,0,0,0,3-4.47,21.16,21.16,0,0,0,1-7.05,21.16,21.16,0,0,0-1-7.05,10.19,10.19,0,0,0-3-4.47,11.46,11.46,0,0,0-5-2.34,34.18,34.18,0,0,0-7.13-.66H350.52v29H364A34.12,34.12,0,0,0,371.13,98.74Z" transform="translate(-1.2 -16.95)"/><path class="cls-4" d="M645.61,98.74a11.43,11.43,0,0,0,5-2.34,10.17,10.17,0,0,0,3-4.47,21.16,21.16,0,0,0,1-7.05,21.16,21.16,0,0,0-1-7.05,10.19,10.19,0,0,0-3-4.47,11.46,11.46,0,0,0-5-2.34,34.18,34.18,0,0,0-7.13-.66H625v29h13.48A34.12,34.12,0,0,0,645.61,98.74Z" transform="translate(-1.2 -16.95)"/><path class="cls-1" d="M682.65,95.29A6.12,6.12,0,0,0,678.3,97a5.45,5.45,0,0,0-1.83,4.1,5.07,5.07,0,0,0,1.83,4,6.71,6.71,0,0,0,8.7,0,5.08,5.08,0,0,0,1.83-4A5.45,5.45,0,0,0,687,97,6.12,6.12,0,0,0,682.65,95.29Z" transform="translate(-1.2 -16.95)"/><path class="cls-1" d="M255,66.07V63.3H245v43.14h10S255,66.14,255,66.07Z" transform="translate(-1.2 -16.95)"/><path class="cls-1" d="M228.54,63.3h-38v43.14h9.87V87.58h22.26V80.53H200.37V70.36h28.17a9.58,9.58,0,0,1,1.32.09h3.55V63.3h-4.87Z" transform="translate(-1.2 -16.95)"/><path class="cls-1" d="M388.35,75.32a18.44,18.44,0,0,0-4.78-6.73,19.89,19.89,0,0,0-7.17-4,29.31,29.31,0,0,0-8.91-1.31H340.6v2.86s0,0.06,0,.09v37.24s0,0.06,0,.09v2.86h26.88a29.26,29.26,0,0,0,8.91-1.31,19.85,19.85,0,0,0,7.17-4,18.43,18.43,0,0,0,4.78-6.73,24.17,24.17,0,0,0,1.74-9.56A24.18,24.18,0,0,0,388.35,75.32Zm-9.17,16.61a10.17,10.17,0,0,1-3,4.47,11.43,11.43,0,0,1-5,2.34,34.12,34.12,0,0,1-7.13.66H350.52v-29H364a34.18,34.18,0,0,1,7.13.66,11.46,11.46,0,0,1,5,2.34,10.19,10.19,0,0,1,3,4.47,21.16,21.16,0,0,1,1,7.05A21.16,21.16,0,0,1,379.17,91.93Z" transform="translate(-1.2 -16.95)"/><path class="cls-1" d="M414.32,63.3h-9.9v2.89s0,0,0,.07v37.24s0,0,0,.07v2.89h9.9V63.3Z" transform="translate(-1.2 -16.95)"/><polygon class="cls-1" points="554.16 89.49 558.68 89.49 558.68 81.94 554.16 81.94 542.5 81.94 525.3 81.94 525.3 57.32 525.3 49.3 525.3 46.35 515.51 46.35 515.51 89.49 537.1 89.49 554.16 89.49"/><path class="cls-1" d="M575.09,103.56v2.89H585V70.85h18.17V63.3H556.93v7.56H575.1v32.65S575.09,103.54,575.09,103.56Z" transform="translate(-1.2 -16.95)"/><path class="cls-1" d="M662.83,75.32A18.44,18.44,0,0,0,658,68.59a19.89,19.89,0,0,0-7.17-4A29.31,29.31,0,0,0,642,63.3H615.12v43.14H642a29.26,29.26,0,0,0,8.91-1.31,19.85,19.85,0,0,0,7.17-4,18.43,18.43,0,0,0,4.78-6.73,24.17,24.17,0,0,0,1.74-9.56A24.18,24.18,0,0,0,662.83,75.32Zm-9.17,16.61a10.17,10.17,0,0,1-3,4.47,11.43,11.43,0,0,1-5,2.34,34.12,34.12,0,0,1-7.13.66H625v-29h13.48a34.18,34.18,0,0,1,7.13.66,11.46,11.46,0,0,1,5,2.34,10.19,10.19,0,0,1,3,4.47,21.16,21.16,0,0,1,1,7.05A21.16,21.16,0,0,1,653.65,91.93Z" transform="translate(-1.2 -16.95)"/><path class="cls-1" d="M255,66.14" transform="translate(-1.2 -16.95)"/><path class="cls-1" d="M313.31,63.3v29L303,82.25h0l-4-3.91L288.36,67.9a13.44,13.44,0,0,1-1.06-1.1l-3.55-3.49H274.2v43.14h9.12V76.26l2.24,2.21,28.55,28h8.42V63.3h-9.21Z" transform="translate(-1.2 -16.95)"/><path class="cls-1" d="M475.12,103.28a7.82,7.82,0,0,1-1-1.1l-0.54-.75L458.84,83.68l0,0h0l6.38-7.45,11-12.89H465.89L453.83,77.66h0l-1.73-2L441.64,63.3H429.71l11.59,14,6.35,7.61-7.41,8.9-10.46,12.67h9.84l3.26-3.88c0-.06.06-0.11,0.11-0.18q0.65-.78,1.09-1.35l8.61-10.17L453.63,92l12.25,14.43h11.87Z" transform="translate(-1.2 -16.95)"/><polygon class="cls-3" points="97.46 55.78 97.46 63.58 113.24 63.58 113.2 80.97 118.95 80.97 118.97 63.58 127.59 63.58 127.53 88.68 133.53 88.68 133.53 55.78 97.46 55.78"/><polygon class="cls-3" points="74.22 58.74 82.03 58.74 82.03 42.96 99.41 43 99.41 37.25 82.03 37.23 82.03 28.62 107.13 28.67 107.13 22.67 74.22 22.67 74.22 58.74"/><polygon class="cls-3" points="77.33 81.85 77.33 74.04 61.55 74.04 61.59 56.66 55.83 56.66 55.82 74.04 47.2 74.04 47.26 48.94 41.26 48.94 41.26 81.85 77.33 81.85"/><polygon class="cls-3" points="100.43 78.89 92.62 78.89 92.62 94.66 75.24 94.62 75.24 100.38 92.62 100.39 92.62 109.01 67.52 108.95 67.52 114.95 100.43 114.95 100.43 78.89"/><path class="cls-1" d="M197.65,135.19h3.26l7.74,19.39h-3.17l-2.23-5.81h-8.37l-2.31,5.81h-3Zm4.79,11.44-3.28-8.57-3.41,8.57h6.7Z" transform="translate(-1.2 -16.95)"/><path class="cls-1" d="M221.25,141a6.9,6.9,0,0,1,1.5,1.35v-1.78h2.41v12.86a8.77,8.77,0,0,1-.87,4.25q-1.62,2.88-6.12,2.88a8.07,8.07,0,0,1-4.21-1,3.92,3.92,0,0,1-1.91-3.2h2.66a2.6,2.6,0,0,0,.75,1.46,4.06,4.06,0,0,0,2.77.79q3,0,3.91-1.93a10,10,0,0,0,.51-4.05,5,5,0,0,1-1.88,1.61,6.76,6.76,0,0,1-2.91.53,6.52,6.52,0,0,1-4.4-1.63q-1.89-1.63-1.89-5.39a7.71,7.71,0,0,1,1.9-5.54A6.4,6.4,0,0,1,221.25,141Zm0.32,2.55a4,4,0,0,0-3-1.27,3.73,3.73,0,0,0-3.76,2.35,8.49,8.49,0,0,0-.53,3.29,5.47,5.47,0,0,0,1.06,3.64,3.55,3.55,0,0,0,2.85,1.25,4,4,0,0,0,3.94-2.31,6.89,6.89,0,0,0,.64-3A5.54,5.54,0,0,0,221.57,143.55Z" transform="translate(-1.2 -16.95)"/><path class="cls-1" d="M240.44,140.83a5.77,5.77,0,0,1,2.35,1.83,6,6,0,0,1,1,2.49,14.93,14.93,0,0,1,.23,3.12H232.75a5.72,5.72,0,0,0,1.11,3.46,3.85,3.85,0,0,0,3.21,1.3,4.34,4.34,0,0,0,3.24-1.23,4.1,4.1,0,0,0,1-1.66h2.57a4.64,4.64,0,0,1-.68,1.73,6.35,6.35,0,0,1-1.28,1.56,6.23,6.23,0,0,1-2.93,1.42,9.63,9.63,0,0,1-2.12.21,6.81,6.81,0,0,1-4.89-1.92,7.09,7.09,0,0,1-2-5.38,7.7,7.7,0,0,1,2-5.53,7,7,0,0,1,5.28-2.12A7.6,7.6,0,0,1,240.44,140.83Zm0.94,5.55a5.77,5.77,0,0,0-.73-2.47,3.86,3.86,0,0,0-3.56-1.72,4.12,4.12,0,0,0-3,1.18,4.26,4.26,0,0,0-1.28,3h8.57Z" transform="translate(-1.2 -16.95)"/><path class="cls-1" d="M249.07,140.44h2.48v2a6.83,6.83,0,0,1,2.34-1.78,6.76,6.76,0,0,1,2.74-.54q3.31,0,4.47,2.1a6.86,6.86,0,0,1,.64,3.29v9.07h-2.66v-8.91a4.45,4.45,0,0,0-.42-2.09,2.6,2.6,0,0,0-2.53-1.32,5.64,5.64,0,0,0-1.52.17,4,4,0,0,0-1.89,1.16,3.41,3.41,0,0,0-.85,1.44,8.88,8.88,0,0,0-.2,2.13v7.41h-2.61V140.44Z" transform="translate(-1.2 -16.95)"/><path class="cls-1" d="M267.82,136.49h2.64v3.95h2.48v1.94h-2.48v9.23a1,1,0,0,0,.55,1,2.54,2.54,0,0,0,1,.15h0.41l0.51,0v1.89a6.52,6.52,0,0,1-.94.17,9.67,9.67,0,0,1-1.05.05,3,3,0,0,1-2.48-.85,3.53,3.53,0,0,1-.65-2.21v-9.36h-2.11v-1.94h2.11v-3.95Z" transform="translate(-1.2 -16.95)"/><path class="cls-1" d="M278.81,150.14a3.21,3.21,0,0,0,.67,1.82,4.47,4.47,0,0,0,3.5,1.15,5.67,5.67,0,0,0,2.61-.57,1.88,1.88,0,0,0,1.13-1.78,1.5,1.5,0,0,0-.9-1.39,11.71,11.71,0,0,0-2.27-.67l-2.11-.48a11,11,0,0,1-3-1,3,3,0,0,1-1.71-2.67,3.9,3.9,0,0,1,1.61-3.25,6.92,6.92,0,0,1,4.33-1.24q3.56,0,5.13,1.87a3.8,3.8,0,0,1,1,2.56H286.3a2.56,2.56,0,0,0-.64-1.46,4.41,4.41,0,0,0-3.2-.93,4.2,4.2,0,0,0-2.3.51,1.56,1.56,0,0,0-.78,1.35,1.65,1.65,0,0,0,1,1.47,6.61,6.61,0,0,0,1.75.58l1.76,0.38a14.68,14.68,0,0,1,3.85,1.2,3.09,3.09,0,0,1,1.52,2.86,4.18,4.18,0,0,1-1.59,3.26,7.3,7.3,0,0,1-4.86,1.37q-3.51,0-5-1.43a5.13,5.13,0,0,1-1.57-3.54h2.51Z" transform="translate(-1.2 -16.95)"/><path class="cls-1" d="M324.69,135.19h2.92v19.39h-2.92V135.19Z" transform="translate(-1.2 -16.95)"/><path class="cls-1" d="M333.64,140.44h2.58v2a8.3,8.3,0,0,1,1.68-1.52,5.43,5.43,0,0,1,2.93-.81,4.94,4.94,0,0,1,3,.83,4.43,4.43,0,0,1,1.16,1.4,5.51,5.51,0,0,1,2-1.68,6.2,6.2,0,0,1,2.64-.55q3.14,0,4.27,2.06a6.2,6.2,0,0,1,.61,3v9.41h-2.72v-9.82a2.18,2.18,0,0,0-.78-1.94,3.29,3.29,0,0,0-1.89-.53,4,4,0,0,0-2.65.94,3.89,3.89,0,0,0-1.11,3.13v8.22h-2.66v-9.23a4.41,4.41,0,0,0-.38-2.1,2.37,2.37,0,0,0-2.22-1,4,4,0,0,0-2.69,1q-1.21,1-1.21,3.77v7.5h-2.61V140.44Z" transform="translate(-1.2 -16.95)"/><path class="cls-1" d="M359.89,140.51h2.56v1.87a6.13,6.13,0,0,1,1.72-1.49,6,6,0,0,1,3.12-.79,6.13,6.13,0,0,1,4.5,1.84,7.1,7.1,0,0,1,1.85,5.26q0,4.62-2.67,6.6a6.44,6.44,0,0,1-3.94,1.25,5.78,5.78,0,0,1-3-.7A6.59,6.59,0,0,1,362.5,153v7.22h-2.61V140.51Zm9.83,11.08a6.18,6.18,0,0,0,1.22-4.16,7.11,7.11,0,0,0-.54-2.9,4.1,4.1,0,0,0-7.46.13,8.93,8.93,0,0,0-.54,3.35,6.52,6.52,0,0,0,.54,2.79,3.75,3.75,0,0,0,3.73,2.19A3.88,3.88,0,0,0,369.72,151.59Z" transform="translate(-1.2 -16.95)"/><path class="cls-1" d="M389.61,141.85a6.76,6.76,0,0,1,2.06,5.35,8.64,8.64,0,0,1-1.82,5.64q-1.82,2.23-5.64,2.23a6.65,6.65,0,0,1-5.06-2,7.36,7.36,0,0,1-1.87-5.29,8,8,0,0,1,2-5.67,6.92,6.92,0,0,1,5.31-2.11A7.35,7.35,0,0,1,389.61,141.85ZM388,151.25a8.29,8.29,0,0,0,1-4,6.58,6.58,0,0,0-.69-3.22,4,4,0,0,0-3.76-2,3.8,3.8,0,0,0-3.44,1.66,7.21,7.21,0,0,0-1.08,4,6.29,6.29,0,0,0,1.08,3.76,3.91,3.91,0,0,0,3.42,1.5A3.63,3.63,0,0,0,388,151.25Z" transform="translate(-1.2 -16.95)"/><path class="cls-1" d="M396.64,140.44h2.48v2.44a5.51,5.51,0,0,1,1.5-1.74,4.09,4.09,0,0,1,2.74-1h0.25l0.6,0.05v2.51l-0.43-.05h-0.43a3.92,3.92,0,0,0-3,1.15,3.82,3.82,0,0,0-1.06,2.66v8.13h-2.61V140.44Z" transform="translate(-1.2 -16.95)"/><path class="cls-1" d="M408.69,136.49h2.64v3.95h2.48v1.94h-2.48v9.23a1,1,0,0,0,.55,1,2.54,2.54,0,0,0,1,.15h0.41l0.51,0v1.89a6.47,6.47,0,0,1-.94.17,9.64,9.64,0,0,1-1.05.05,3,3,0,0,1-2.48-.85,3.53,3.53,0,0,1-.65-2.21v-9.36h-2.1v-1.94h2.1v-3.95Z" transform="translate(-1.2 -16.95)"/><path class="cls-1" d="M427.73,140.83a5.77,5.77,0,0,1,2.35,1.83,6,6,0,0,1,1,2.49,14.93,14.93,0,0,1,.23,3.12H420a5.71,5.71,0,0,0,1.11,3.46,3.85,3.85,0,0,0,3.21,1.3,4.34,4.34,0,0,0,3.24-1.23,4.11,4.11,0,0,0,1-1.66h2.57a4.61,4.61,0,0,1-.68,1.73,6.3,6.3,0,0,1-1.28,1.56,6.23,6.23,0,0,1-2.93,1.42,9.63,9.63,0,0,1-2.12.21,6.8,6.8,0,0,1-4.89-1.92,7.09,7.09,0,0,1-2-5.38,7.7,7.7,0,0,1,2-5.53,7,7,0,0,1,5.28-2.12A7.61,7.61,0,0,1,427.73,140.83Zm0.94,5.55a5.79,5.79,0,0,0-.74-2.47,3.86,3.86,0,0,0-3.56-1.72,4.12,4.12,0,0,0-3,1.18,4.27,4.27,0,0,0-1.28,3h8.57Z" transform="translate(-1.2 -16.95)"/><path class="cls-1" d="M436.43,140.44h2.48v2.44a5.51,5.51,0,0,1,1.5-1.74,4.09,4.09,0,0,1,2.74-1h0.25l0.6,0.05v2.51l-0.43-.05h-0.43a3.92,3.92,0,0,0-3,1.15,3.82,3.82,0,0,0-1.06,2.66v8.13h-2.61V140.44Z" transform="translate(-1.2 -16.95)"/><path class="cls-1" d="M449.51,150.14a3.19,3.19,0,0,0,.67,1.82,4.47,4.47,0,0,0,3.5,1.15,5.67,5.67,0,0,0,2.61-.57,1.88,1.88,0,0,0,1.13-1.78,1.5,1.5,0,0,0-.9-1.39,11.7,11.7,0,0,0-2.27-.67l-2.11-.48a11,11,0,0,1-3-1,3,3,0,0,1-1.71-2.67,3.9,3.9,0,0,1,1.61-3.25,6.92,6.92,0,0,1,4.33-1.24q3.56,0,5.14,1.87a3.81,3.81,0,0,1,1,2.56H457a2.56,2.56,0,0,0-.64-1.46,4.41,4.41,0,0,0-3.2-.93,4.19,4.19,0,0,0-2.3.51,1.56,1.56,0,0,0-.78,1.35,1.65,1.65,0,0,0,1,1.47,6.59,6.59,0,0,0,1.74.58l1.76,0.38a14.68,14.68,0,0,1,3.85,1.2,3.09,3.09,0,0,1,1.52,2.86,4.17,4.17,0,0,1-1.59,3.26,7.3,7.3,0,0,1-4.86,1.37q-3.51,0-5-1.43a5.13,5.13,0,0,1-1.57-3.54h2.51Z" transform="translate(-1.2 -16.95)"/><path class="cls-1" d="M494.86,135.19h8.52a8.33,8.33,0,0,1,6.73,2.84,9.89,9.89,0,0,1,2.13,6.56,12.2,12.2,0,0,1-1.26,5.58q-2.22,4.41-7.64,4.41h-8.5V135.19Zm8,17.14a8.33,8.33,0,0,0,2.36-.28,5.13,5.13,0,0,0,2.7-2,7.77,7.77,0,0,0,1.21-3,10.66,10.66,0,0,0,.21-2,9,9,0,0,0-1.54-5.6q-1.54-2-5-2h-5v14.89h5Z" transform="translate(-1.2 -16.95)"/><path class="cls-1" d="M517.55,135.19h2.66v2.69h-2.66v-2.69Zm0,5.32h2.66v14.07h-2.66V140.51Z" transform="translate(-1.2 -16.95)"/><path class="cls-1" d="M527.41,150.14a3.19,3.19,0,0,0,.67,1.82,4.47,4.47,0,0,0,3.5,1.15,5.67,5.67,0,0,0,2.61-.57,1.88,1.88,0,0,0,1.13-1.78,1.5,1.5,0,0,0-.9-1.39,11.7,11.7,0,0,0-2.27-.67l-2.11-.48a11,11,0,0,1-3-1,3,3,0,0,1-1.71-2.67,3.9,3.9,0,0,1,1.61-3.25,6.92,6.92,0,0,1,4.33-1.24q3.56,0,5.14,1.87a3.81,3.81,0,0,1,1,2.56H534.9a2.56,2.56,0,0,0-.64-1.46,4.41,4.41,0,0,0-3.2-.93,4.19,4.19,0,0,0-2.3.51A1.56,1.56,0,0,0,528,144a1.65,1.65,0,0,0,1,1.47,6.59,6.59,0,0,0,1.74.58l1.76,0.38a14.68,14.68,0,0,1,3.85,1.2,3.09,3.09,0,0,1,1.52,2.86,4.17,4.17,0,0,1-1.59,3.26,7.3,7.3,0,0,1-4.86,1.37q-3.51,0-5-1.43a5.13,5.13,0,0,1-1.57-3.54h2.51Z" transform="translate(-1.2 -16.95)"/><path class="cls-1" d="M542.94,136.49h2.64v3.95h2.48v1.94h-2.48v9.23a1,1,0,0,0,.55,1,2.54,2.54,0,0,0,1,.15h0.41l0.51,0v1.89a6.47,6.47,0,0,1-.94.17,9.64,9.64,0,0,1-1.05.05,3,3,0,0,1-2.48-.85,3.53,3.53,0,0,1-.65-2.21v-9.36h-2.1v-1.94h2.1v-3.95Z" transform="translate(-1.2 -16.95)"/><path class="cls-1" d="M552.44,140.44h2.48v2.44a5.51,5.51,0,0,1,1.5-1.74,4.09,4.09,0,0,1,2.74-1h0.25l0.6,0.05v2.51l-0.43-.05h-0.43a3.92,3.92,0,0,0-3,1.15,3.82,3.82,0,0,0-1.06,2.66v8.13h-2.61V140.44Z" transform="translate(-1.2 -16.95)"/><path class="cls-1" d="M564,135.19h2.66v2.69H564v-2.69Zm0,5.32h2.66v14.07H564V140.51Z" transform="translate(-1.2 -16.95)"/><path class="cls-1" d="M572.05,135.12h2.54v7a5.73,5.73,0,0,1,2.05-1.55,6.27,6.27,0,0,1,2.59-.53,6.39,6.39,0,0,1,4.73,1.81,7.25,7.25,0,0,1,1.81,5.35,8.57,8.57,0,0,1-1.79,5.57,6,6,0,0,1-5,2.22,5.49,5.49,0,0,1-3-.78,6.93,6.93,0,0,1-1.56-1.48v1.81h-2.41V135.12Zm10,16.27a7,7,0,0,0,1.06-4,6.16,6.16,0,0,0-1.06-3.7,3.59,3.59,0,0,0-3.11-1.46,4.58,4.58,0,0,0-3.14,1.2,5.07,5.07,0,0,0-1.35,4,8,8,0,0,0,.55,3.23,3.84,3.84,0,0,0,3.86,2.34A3.61,3.61,0,0,0,582,151.4Z" transform="translate(-1.2 -16.95)"/><path class="cls-1" d="M593.11,140.44v9.39a3.73,3.73,0,0,0,.37,1.77,2.61,2.61,0,0,0,2.53,1.27,3.59,3.59,0,0,0,3.62-2.22,8.28,8.28,0,0,0,.52-3.26v-6.94h2.61v14.14H600.3l0-2.09a4.91,4.91,0,0,1-1.24,1.36,5.74,5.74,0,0,1-3.56,1.11q-3.26,0-4.44-2a5.64,5.64,0,0,1-.64-2.89v-9.61h2.67Z" transform="translate(-1.2 -16.95)"/><path class="cls-1" d="M609.25,136.49h2.64v3.95h2.48v1.94H611.9v9.23a1,1,0,0,0,.55,1,2.54,2.54,0,0,0,1,.15h0.41l0.51,0v1.89a6.47,6.47,0,0,1-.94.17,9.64,9.64,0,0,1-1.05.05,3,3,0,0,1-2.48-.85,3.53,3.53,0,0,1-.65-2.21v-9.36h-2.1v-1.94h2.1v-3.95Z" transform="translate(-1.2 -16.95)"/><path class="cls-1" d="M630,141.85a6.76,6.76,0,0,1,2.06,5.35,8.64,8.64,0,0,1-1.82,5.64q-1.82,2.23-5.64,2.23a6.65,6.65,0,0,1-5.06-2,7.36,7.36,0,0,1-1.87-5.29,8,8,0,0,1,2-5.67,6.92,6.92,0,0,1,5.31-2.11A7.35,7.35,0,0,1,630,141.85Zm-1.62,9.39a8.29,8.29,0,0,0,1-4,6.58,6.58,0,0,0-.69-3.22,4,4,0,0,0-3.76-2,3.8,3.8,0,0,0-3.44,1.66,7.21,7.21,0,0,0-1.08,4,6.29,6.29,0,0,0,1.08,3.76,3.91,3.91,0,0,0,3.42,1.5A3.63,3.63,0,0,0,628.33,151.25Z" transform="translate(-1.2 -16.95)"/><path class="cls-1" d="M637,140.44h2.48v2.44a5.51,5.51,0,0,1,1.5-1.74,4.09,4.09,0,0,1,2.74-1H644l0.6,0.05v2.51l-0.43-.05H643.7a3.92,3.92,0,0,0-3,1.15,3.82,3.82,0,0,0-1.06,2.66v8.13H637V140.44Z" transform="translate(-1.2 -16.95)"/><path class="cls-1" d="M650.07,150.14a3.19,3.19,0,0,0,.67,1.82,4.47,4.47,0,0,0,3.5,1.15,5.67,5.67,0,0,0,2.61-.57,1.88,1.88,0,0,0,1.13-1.78,1.5,1.5,0,0,0-.9-1.39,11.7,11.7,0,0,0-2.27-.67l-2.11-.48a11,11,0,0,1-3-1,3,3,0,0,1-1.71-2.67,3.9,3.9,0,0,1,1.61-3.25,6.92,6.92,0,0,1,4.33-1.24q3.56,0,5.14,1.87a3.81,3.81,0,0,1,1,2.56h-2.47a2.56,2.56,0,0,0-.64-1.46,4.41,4.41,0,0,0-3.2-.93,4.19,4.19,0,0,0-2.3.51,1.56,1.56,0,0,0-.78,1.35,1.65,1.65,0,0,0,1,1.47,6.59,6.59,0,0,0,1.74.58l1.76,0.38a14.68,14.68,0,0,1,3.85,1.2,3.09,3.09,0,0,1,1.52,2.86,4.17,4.17,0,0,1-1.59,3.26,7.3,7.3,0,0,1-4.86,1.37q-3.51,0-5-1.43a5.13,5.13,0,0,1-1.57-3.54h2.51Z" transform="translate(-1.2 -16.95)"/></svg>